<svg width="20" height="20" viewBox="0 0 20 20" fill="none" xmlns="http://www.w3.org/2000/svg">
<path d="M5.58318 15H3.45819C2.26652 15 1.6665 14.3999 1.6665 13.2083V3.45831C1.6665 2.26665 2.26652 1.66663 3.45819 1.66663H7.04151C8.23318 1.66663 8.83315 2.26665 8.83315 3.45831V4.99996" stroke="#292D32" stroke-width="1.5" stroke-miterlimit="10" stroke-linecap="round" stroke-linejoin="round"/>
<path d="M14.4751 7.01665V16.3167C14.4751 17.6583 13.8085 18.3333 12.4668 18.3333H7.60015C6.25848 18.3333 5.5835 17.6583 5.5835 16.3167V7.01665C5.5835 5.67499 6.25848 5 7.60015 5H12.4668C13.8085 5 14.4751 5.67499 14.4751 7.01665Z" stroke="#292D32" stroke-width="1.5" stroke-miterlimit="10" stroke-linecap="round" stroke-linejoin="round"/>
<path d="M11.1665 4.99996V3.45831C11.1665 2.26665 11.7665 1.66663 12.9581 1.66663H16.5415C17.7331 1.66663 18.3332 2.26665 18.3332 3.45831V13.2083C18.3332 14.3999 17.7331 15 16.5415 15H14.4748" stroke="#292D32" stroke-width="1.5" stroke-miterlimit="10" stroke-linecap="round" stroke-linejoin="round"/>
<path d="M8.3335 9.16663H11.6668" stroke="#292D32" stroke-width="1.5" stroke-miterlimit="10" stroke-linecap="round" stroke-linejoin="round"/>
<path d="M8.3335 11.6666H11.6668" stroke="#292D32" stroke-width="1.5" stroke-miterlimit="10" stroke-linecap="round" stroke-linejoin="round"/>
<path d="M10 18.3334V15.8334" stroke="#292D32" stroke-width="1.5" stroke-miterlimit="10" stroke-linecap="round" stroke-linejoin="round"/>
</svg>
