<svg width="20" height="20" viewBox="0 0 20 20" fill="none" xmlns="http://www.w3.org/2000/svg">
<path d="M2.0835 4.16665V15.8333C2.0835 16.0543 2.17129 16.2663 2.32757 16.4226C2.48385 16.5788 2.69582 16.6666 2.91683 16.6666H7.50016L6.25016 12.0833L9.16683 11.25L8.75016 8.33331L12.0835 6.66665L11.2502 5.41665L12.5002 3.33331H2.91683C2.69582 3.33331 2.48385 3.42111 2.32757 3.57739C2.17129 3.73367 2.0835 3.94563 2.0835 4.16665ZM17.9168 15.8333V4.16665C17.9168 3.94563 17.829 3.73367 17.6728 3.57739C17.5165 3.42111 17.3045 3.33331 17.0835 3.33331H15.8335L14.1668 5.83331L15.4168 7.91665L11.6668 9.58331L12.0835 12.9166L9.16683 13.75L10.0002 16.6666H17.0835C17.3045 16.6666 17.5165 16.5788 17.6728 16.4226C17.829 16.2663 17.9168 16.0543 17.9168 15.8333Z" stroke="black" stroke-linecap="round" stroke-linejoin="round"/>
<path d="M6.04199 7.5C6.20775 7.5 6.36672 7.43415 6.48393 7.31694C6.60114 7.19973 6.66699 7.04076 6.66699 6.875C6.66699 6.70924 6.60114 6.55027 6.48393 6.43306C6.36672 6.31585 6.20775 6.25 6.04199 6.25C5.87623 6.25 5.71726 6.31585 5.60005 6.43306C5.48284 6.55027 5.41699 6.70924 5.41699 6.875C5.41699 7.04076 5.48284 7.19973 5.60005 7.31694C5.71726 7.43415 5.87623 7.5 6.04199 7.5Z" stroke="black" stroke-linecap="round" stroke-linejoin="round"/>
</svg>
