<svg width="21" height="21" viewBox="0 0 21 21" fill="none" xmlns="http://www.w3.org/2000/svg">
<path d="M10.5 20.5C16.0228 20.5 20.5 16.0228 20.5 10.5C20.5 4.97715 16.0228 0.5 10.5 0.5C4.97715 0.5 0.5 4.97715 0.5 10.5C0.5 16.0228 4.97715 20.5 10.5 20.5Z" stroke="black"/>
<path d="M10.4999 17.7222C10.8067 17.7222 11.0554 17.4735 11.0554 17.1666C11.0554 16.8598 10.8067 16.6111 10.4999 16.6111C10.1931 16.6111 9.94434 16.8598 9.94434 17.1666C9.94434 17.4735 10.1931 17.7222 10.4999 17.7222Z" fill="black"/>
<path d="M10.5003 14.9445V13.9922C10.5003 13.1989 10.897 12.4578 11.557 12.0178L12.2225 11.5733C12.718 11.2426 13.1242 10.7948 13.4052 10.2696C13.6863 9.74435 13.8334 9.15792 13.8337 8.56224V8.27779C13.8337 7.39374 13.4825 6.54589 12.8573 5.92077C12.2322 5.29565 11.3844 4.94446 10.5003 4.94446C9.61627 4.94446 8.76842 5.29565 8.1433 5.92077C7.51818 6.54589 7.16699 7.39374 7.16699 8.27779" stroke="black"/>
</svg>
