<svg width="20" height="20" viewBox="0 0 20 20" fill="none" xmlns="http://www.w3.org/2000/svg">
<path d="M1.6665 18.3334H18.3332" stroke="#292D32" stroke-width="1.5" stroke-miterlimit="10" stroke-linecap="round" stroke-linejoin="round"/>
<path d="M2.4585 18.3334L2.50016 8.30836C2.50016 7.80003 2.74183 7.31674 3.14183 7.00008L8.97516 2.4584C9.57516 1.99173 10.4168 1.99173 11.0252 2.4584L16.8585 6.99173C17.2668 7.3084 17.5002 7.7917 17.5002 8.30836V18.3334" stroke="#292D32" stroke-width="1.5" stroke-miterlimit="10" stroke-linejoin="round"/>
<path d="M10.8332 14.1666H9.1665C8.47484 14.1666 7.9165 14.725 7.9165 15.4166V18.3333H12.0832V15.4166C12.0832 14.725 11.5248 14.1666 10.8332 14.1666Z" stroke="#292D32" stroke-width="1.5" stroke-miterlimit="10" stroke-linejoin="round"/>
<path d="M7.9165 11.4583H6.24984C5.7915 11.4583 5.4165 11.0833 5.4165 10.625V9.37496C5.4165 8.91663 5.7915 8.54163 6.24984 8.54163H7.9165C8.37484 8.54163 8.74984 8.91663 8.74984 9.37496V10.625C8.74984 11.0833 8.37484 11.4583 7.9165 11.4583Z" stroke="#292D32" stroke-width="1.5" stroke-miterlimit="10" stroke-linejoin="round"/>
<path d="M13.75 11.4583H12.0833C11.625 11.4583 11.25 11.0833 11.25 10.625V9.37496C11.25 8.91663 11.625 8.54163 12.0833 8.54163H13.75C14.2083 8.54163 14.5833 8.91663 14.5833 9.37496V10.625C14.5833 11.0833 14.2083 11.4583 13.75 11.4583Z" stroke="#292D32" stroke-width="1.5" stroke-miterlimit="10" stroke-linejoin="round"/>
<path d="M15.8333 5.83337L15.8083 3.33337H12.1416" stroke="#292D32" stroke-width="1.5" stroke-miterlimit="10" stroke-linecap="round" stroke-linejoin="round"/>
</svg>
