<svg width="16" height="16" viewBox="0 0 16 16" fill="none" xmlns="http://www.w3.org/2000/svg">
<path d="M5.33301 3.83325C5.05967 3.83325 4.83301 3.60659 4.83301 3.33325V1.33325C4.83301 1.05992 5.05967 0.833252 5.33301 0.833252C5.60634 0.833252 5.83301 1.05992 5.83301 1.33325V3.33325C5.83301 3.60659 5.60634 3.83325 5.33301 3.83325Z" fill="#2A9B4A"/>
<path d="M10.667 3.83325C10.3937 3.83325 10.167 3.60659 10.167 3.33325V1.33325C10.167 1.05992 10.3937 0.833252 10.667 0.833252C10.9403 0.833252 11.167 1.05992 11.167 1.33325V3.33325C11.167 3.60659 10.9403 3.83325 10.667 3.83325Z" fill="#2A9B4A"/>
<path d="M10.0003 9.16675H4.66699C4.39366 9.16675 4.16699 8.94008 4.16699 8.66675C4.16699 8.39341 4.39366 8.16675 4.66699 8.16675H10.0003C10.2737 8.16675 10.5003 8.39341 10.5003 8.66675C10.5003 8.94008 10.2737 9.16675 10.0003 9.16675Z" fill="#2A9B4A"/>
<path d="M8.00033 11.8333H4.66699C4.39366 11.8333 4.16699 11.6066 4.16699 11.3333C4.16699 11.0599 4.39366 10.8333 4.66699 10.8333H8.00033C8.27366 10.8333 8.50033 11.0599 8.50033 11.3333C8.50033 11.6066 8.27366 11.8333 8.00033 11.8333Z" fill="#2A9B4A"/>
<path d="M10 15.1666H6C2.25333 15.1666 1.5 13.3999 1.5 10.5466V6.43325C1.5 3.27325 2.56667 1.98659 5.30667 1.83325H10.6667C10.6733 1.83325 10.6867 1.83325 10.6933 1.83325C13.4333 1.98659 14.5 3.27325 14.5 6.43325V10.5466C14.5 13.3999 13.7467 15.1666 10 15.1666ZM5.33333 2.83325C3.46667 2.93992 2.5 3.52658 2.5 6.43325V10.5466C2.5 13.0999 2.98667 14.1666 6 14.1666H10C13.0133 14.1666 13.5 13.0999 13.5 10.5466V6.43325C13.5 3.53325 12.54 2.93992 10.6533 2.83325H5.33333Z" fill="#2A9B4A"/>
</svg>
