<svg width="20" height="20" viewBox="0 0 20 20" fill="none" xmlns="http://www.w3.org/2000/svg">
<path d="M13.7497 3.33337H6.66634C5.78229 3.33337 4.93444 3.68456 4.30932 4.30968C3.6842 4.93481 3.33301 5.78265 3.33301 6.66671V13.75C3.33301 14.6341 3.6842 15.4819 4.30932 16.1071C4.93444 16.7322 5.78229 17.0834 6.66634 17.0834H12.3688C12.8067 17.0834 13.2402 16.9971 13.6448 16.8296C14.0493 16.662 14.4168 16.4164 14.7263 16.1067L16.1063 14.7267C16.416 14.4172 16.6616 14.0496 16.8292 13.6451C16.9968 13.2406 17.083 12.8071 17.083 12.3692V6.66671C17.083 5.78265 16.7318 4.93481 16.1067 4.30968C15.4816 3.68456 14.6337 3.33337 13.7497 3.33337Z" stroke="black" stroke-width="1.5" stroke-linecap="round" stroke-linejoin="round"/>
<path d="M17.0827 11.6667H14.166C13.503 11.6667 12.8671 11.9301 12.3982 12.399C11.9294 12.8678 11.666 13.5037 11.666 14.1667V17.0834M6.66602 6.66675H12.916M6.66602 10.0001H10.8327" stroke="black" stroke-width="1.5" stroke-linecap="round" stroke-linejoin="round"/>
</svg>
