<svg width="17" height="19" viewBox="0 0 17 19" fill="none" xmlns="http://www.w3.org/2000/svg">
<path d="M0.75 3.25H5.275C5.54932 3.25004 5.81941 3.18237 6.0613 3.05299C6.3032 2.92361 6.50942 2.73653 6.66167 2.50833L7.33833 1.49167C7.49058 1.26347 7.6968 1.07639 7.9387 0.947008C8.18059 0.81763 8.45068 0.749959 8.725 0.75H12.465C12.8149 0.749916 13.156 0.859982 13.4399 1.0646C13.7238 1.26921 13.9361 1.55799 14.0467 1.89L14.5 3.25M15.75 3.25H4.91667" stroke="#575E6C" stroke-width="1.5" stroke-linecap="round" stroke-linejoin="round"/>
<path d="M14.5 3.25L14.0833 8.66667M2 3.25L2.50417 12.03C2.6325 14.1717 2.6975 15.2433 3.2325 16.0133C3.49667 16.395 3.8375 16.7158 4.2325 16.9575C4.7175 17.2542 5.3025 17.3708 6.16667 17.4167M7.41667 11.9983L8.36333 13.22C8.53528 12.5781 8.89515 12.0023 9.39674 11.5664C9.89832 11.1306 10.5187 10.8546 11.1783 10.7739C11.8379 10.6932 12.5065 10.8115 13.0984 11.1135C13.6903 11.4156 14.1784 11.8877 14.5 12.4692M15.75 16.165L14.8033 14.945C14.6328 15.5819 14.2772 16.1538 13.7815 16.5886C13.2858 17.0233 12.6724 17.3013 12.0187 17.3874C11.365 17.4735 10.7005 17.3638 10.1092 17.0722C9.51786 16.7806 9.0263 16.3202 8.69667 15.7492" stroke="#575E6C" stroke-width="1.5" stroke-linecap="round" stroke-linejoin="round"/>
</svg>
