<svg width="20" height="20" viewBox="0 0 20 20" fill="none" xmlns="http://www.w3.org/2000/svg">
<path d="M8.41398 7.53835V10.9542C8.41398 11.1163 8.2544 11.2467 8.05607 11.2467C7.85773 11.2467 7.69815 11.1163 7.69815 10.9542V7.53835M6.85773 7.53835V10.9542C6.85773 11.1163 6.69815 11.2467 6.49982 11.2467C6.30148 11.2467 6.1419 11.1163 6.1419 10.9542V7.53835M8.3194 17.7079V13.8954C8.3194 13.4942 8.3219 13.3134 8.82898 12.8054C9.33648 12.2979 9.33857 12.0996 9.33857 11.7159V8.08919C9.33857 7.78419 9.09315 7.53919 8.78857 7.53919H8.4144M6.14273 7.53919H5.76773C5.46273 7.53919 5.21773 7.78419 5.21773 8.08919L5.21898 11.7159C5.22065 12.0996 5.22315 12.2979 5.73023 12.8054C6.23732 13.3129 6.24023 13.4942 6.23857 13.895L6.23648 17.7079L4.68232 17.7084C3.76773 17.7084 3.06398 16.9717 3.03148 16.0584L2.64648 5.2596L4.63732 2.29169H15.364L17.354 5.2596L16.969 16.0584C16.9365 16.9717 16.2327 17.7084 15.3182 17.7084L13.9523 17.7079V12.7404C14.6469 12.2467 15.0794 11.3004 15.0807 10.2717C15.0807 8.71502 14.1098 7.45294 12.9119 7.45252H12.9107C11.7127 7.45252 10.7419 8.71502 10.7419 10.2717C10.7432 11.3004 11.1752 12.2467 11.8694 12.7404V17.7079M7.69898 7.53919H6.85857M8.31898 17.7084H11.869M6.85482 5.30169V4.05585C6.85482 3.75127 7.10023 3.50585 7.40482 3.50585H12.5948C12.8998 3.50585 13.1452 3.75127 13.1452 4.05585V5.30169H6.85482Z" stroke="black" stroke-linecap="round" stroke-linejoin="round"/>
</svg>
