<svg width="32" height="33" viewBox="0 0 32 33" fill="none" xmlns="http://www.w3.org/2000/svg">
<path d="M15.9998 3.16663C8.65317 3.16663 2.6665 9.15329 2.6665 16.5C2.6665 23.8466 8.65317 29.8333 15.9998 29.8333C23.3465 29.8333 29.3332 23.8466 29.3332 16.5C29.3332 9.15329 23.3465 3.16663 15.9998 3.16663ZM22.3732 13.4333L14.8132 20.9933C14.6265 21.18 14.3732 21.2866 14.1065 21.2866C13.8398 21.2866 13.5865 21.18 13.3998 20.9933L9.6265 17.22C9.23984 16.8333 9.23984 16.1933 9.6265 15.8066C10.0132 15.42 10.6532 15.42 11.0398 15.8066L14.1065 18.8733L20.9598 12.02C21.3465 11.6333 21.9865 11.6333 22.3732 12.02C22.7598 12.4066 22.7598 13.0333 22.3732 13.4333Z" fill="#2AE230"/>
</svg>
