<svg width="20" height="20" viewBox="0 0 20 20" fill="none" xmlns="http://www.w3.org/2000/svg">
<path d="M8.33317 7.91665C8.33317 10.4483 6.8415 12.5 4.99984 12.5C3.15817 12.5 1.6665 10.4483 1.6665 7.91665C1.6665 5.38498 3.15817 3.33331 4.99984 3.33331C6.8415 3.33331 8.33317 5.38498 8.33317 7.91665Z" stroke="black" stroke-linecap="round" stroke-linejoin="round"/>
<path d="M5.00652 7.91665H4.99902M18.1774 8.91165C18.2774 8.47081 18.3332 7.99498 18.3332 7.49998C18.3332 5.19915 17.1465 3.33331 15.6815 3.33331H4.99986C7.62902 3.33331 8.80819 6.62915 8.35236 8.80581C7.87986 11.0558 5.98236 13.6408 6.15736 15.9425C6.18819 16.3516 6.49902 16.6666 6.87236 16.6666H15.2999C15.7099 16.6666 16.0315 16.2816 15.9974 15.8333C15.8274 13.59 17.6765 11.0941 18.1774 8.91165Z" stroke="black" stroke-linecap="round" stroke-linejoin="round"/>
</svg>
